<svg xmlns="http://www.w3.org/2000/svg" xmlns:xlink="http://www.w3.org/1999/xlink" width="100%" zoomAndPan="magnify" viewBox="140 255 1185 905" height="100%" preserveAspectRatio="xMidYMid meet" version="1.0"><defs><clipPath id="98cd92bf36"><path d="M 271.097656 277.605469 L 1310.953125 277.605469 L 1310.953125 1141.898438 L 271.097656 1141.898438 Z M 271.097656 277.605469 " clip-rule="nonzero"/></clipPath><clipPath id="17746ad8c0"><path d="M 871.550781 277.605469 L 314.214844 277.605469 C 299.628906 277.605469 286.042969 285.027344 278.164062 297.304688 C 270.28125 309.582031 269.191406 325.023438 275.269531 338.289062 L 615.675781 1081.214844 C 632.617188 1118.191406 669.558594 1141.898438 710.230469 1141.898438 L 1267.5625 1141.898438 C 1282.152344 1141.898438 1295.738281 1134.476562 1303.617188 1122.199219 C 1311.496094 1109.921875 1312.585938 1094.476562 1306.507812 1081.214844 L 966.105469 338.289062 C 949.160156 301.3125 912.222656 277.605469 871.550781 277.605469 Z M 871.550781 277.605469 " clip-rule="nonzero"/></clipPath><clipPath id="2f90a03213"><path d="M 0.0976562 0.605469 L 1039.953125 0.605469 L 1039.953125 864.898438 L 0.0976562 864.898438 Z M 0.0976562 0.605469 " clip-rule="nonzero"/></clipPath><clipPath id="8f21b0f58b"><path d="M 600.550781 0.605469 L 43.214844 0.605469 C 28.628906 0.605469 15.042969 8.027344 7.164062 20.304688 C -0.71875 32.582031 -1.808594 48.023438 4.269531 61.289062 L 344.675781 804.214844 C 361.617188 841.191406 398.558594 864.898438 439.230469 864.898438 L 996.5625 864.898438 C 1011.152344 864.898438 1024.738281 857.476562 1032.617188 845.199219 C 1040.496094 832.921875 1041.585938 817.476562 1035.507812 804.214844 L 695.105469 61.289062 C 678.160156 24.3125 641.222656 0.605469 600.550781 0.605469 Z M 600.550781 0.605469 " clip-rule="nonzero"/></clipPath><clipPath id="01639a6a73"><rect x="0" width="1040" y="0" height="865"/></clipPath><clipPath id="b7c7f82b7f"><path d="M 165.6875 810.703125 L 496.882812 810.703125 L 496.882812 1141.898438 L 165.6875 1141.898438 Z M 165.6875 810.703125 " clip-rule="nonzero"/></clipPath><clipPath id="ce115e6fbe"><path d="M 331.285156 810.703125 C 239.828125 810.703125 165.6875 884.84375 165.6875 976.300781 C 165.6875 1067.757812 239.828125 1141.898438 331.285156 1141.898438 C 422.742188 1141.898438 496.882812 1067.757812 496.882812 976.300781 C 496.882812 884.84375 422.742188 810.703125 331.285156 810.703125 Z M 331.285156 810.703125 " clip-rule="nonzero"/></clipPath><clipPath id="c4d3e4b1a3"><path d="M 0.6875 0.703125 L 331.882812 0.703125 L 331.882812 331.898438 L 0.6875 331.898438 Z M 0.6875 0.703125 " clip-rule="nonzero"/></clipPath><clipPath id="51d88a56af"><path d="M 166.285156 0.703125 C 74.828125 0.703125 0.6875 74.84375 0.6875 166.300781 C 0.6875 257.757812 74.828125 331.898438 166.285156 331.898438 C 257.742188 331.898438 331.882812 257.757812 331.882812 166.300781 C 331.882812 74.84375 257.742188 0.703125 166.285156 0.703125 Z M 166.285156 0.703125 " clip-rule="nonzero"/></clipPath><clipPath id="47eaf862a3"><rect x="0" width="332" y="0" height="332"/></clipPath></defs><g clip-path="url(#98cd92bf36)"><g clip-path="url(#17746ad8c0)"><g transform="matrix(1, 0, 0, 1, 271, 277)"><g clip-path="url(#01639a6a73)"><g clip-path="url(#2f90a03213)"><g clip-path="url(#8f21b0f58b)"><path fill="#1800ad" d="M -23.535156 0.605469 L 1063.585938 0.605469 L 1063.585938 864.898438 L -23.535156 864.898438 Z M -23.535156 0.605469 " fill-opacity="1" fill-rule="nonzero"/></g></g></g></g></g></g><g clip-path="url(#b7c7f82b7f)"><g clip-path="url(#ce115e6fbe)"><g transform="matrix(1, 0, 0, 1, 165, 810)"><g clip-path="url(#47eaf862a3)"><g clip-path="url(#c4d3e4b1a3)"><g clip-path="url(#51d88a56af)"><path fill="#1800ad" d="M 0.6875 0.703125 L 331.882812 0.703125 L 331.882812 331.898438 L 0.6875 331.898438 Z M 0.6875 0.703125 " fill-opacity="1" fill-rule="nonzero"/></g></g></g></g></g></g></svg>