<svg xmlns="http://www.w3.org/2000/svg" xmlns:xlink="http://www.w3.org/1999/xlink" viewBox="386 348 569 112" height="112" preserveAspectRatio="xMidYMid meet" version="1.0"><defs><g/><clipPath id="becfa91036"><path d="M 0.675781 25.117188 L 568.484375 25.117188 L 568.484375 88.296875 L 0.675781 88.296875 Z M 0.675781 25.117188 " clip-rule="nonzero"/></clipPath><clipPath id="c09aaa9e00"><path d="M 9.355469 25.117188 L 83.292969 25.117188 L 83.292969 88.210938 L 9.355469 88.210938 Z M 9.355469 25.117188 " clip-rule="nonzero"/></clipPath><clipPath id="ac7c116591"><path d="M 48.976562 25.117188 L 14.742188 25.117188 C 12.972656 25.117188 11.324219 26.019531 10.367188 27.507812 C 9.414062 28.996094 9.28125 30.871094 10.019531 32.480469 L 32.179688 80.847656 C 34.234375 85.335938 38.71875 88.210938 43.652344 88.210938 L 77.886719 88.210938 C 79.65625 88.210938 81.304688 87.3125 82.261719 85.820312 C 83.214844 84.332031 83.347656 82.457031 82.613281 80.847656 L 60.449219 32.480469 C 58.394531 27.992188 53.910156 25.117188 48.976562 25.117188 Z M 48.976562 25.117188 " clip-rule="nonzero"/></clipPath><clipPath id="8afdc3e714"><path d="M 0.355469 0.117188 L 74.292969 0.117188 L 74.292969 63.210938 L 0.355469 63.210938 Z M 0.355469 0.117188 " clip-rule="nonzero"/></clipPath><clipPath id="cea62524e9"><path d="M 39.976562 0.117188 L 5.742188 0.117188 C 3.972656 0.117188 2.324219 1.019531 1.367188 2.507812 C 0.414062 3.996094 0.28125 5.871094 1.019531 7.480469 L 23.179688 55.847656 C 25.234375 60.335938 29.71875 63.210938 34.652344 63.210938 L 68.886719 63.210938 C 70.65625 63.210938 72.304688 62.3125 73.261719 60.820312 C 74.214844 59.332031 74.347656 57.457031 73.613281 55.847656 L 51.449219 7.480469 C 49.394531 2.992188 44.910156 0.117188 39.976562 0.117188 Z M 39.976562 0.117188 " clip-rule="nonzero"/></clipPath><clipPath id="164b02727e"><rect x="0" width="569" y="0" height="112"/></clipPath><clipPath id="44138cc699"><path d="M 0.675781 64.035156 L 24.851562 64.035156 L 24.851562 88.210938 L 0.675781 88.210938 Z M 0.675781 64.035156 " clip-rule="nonzero"/></clipPath><clipPath id="5736b685bf"><path d="M 12.761719 64.035156 C 6.085938 64.035156 0.675781 69.445312 0.675781 76.121094 C 0.675781 82.800781 6.085938 88.210938 12.761719 88.210938 C 19.4375 88.210938 24.851562 82.800781 24.851562 76.121094 C 24.851562 69.445312 19.4375 64.035156 12.761719 64.035156 Z M 12.761719 64.035156 " clip-rule="nonzero"/></clipPath><clipPath id="df191d0266"><path d="M 0.675781 0.0351562 L 24.851562 0.0351562 L 24.851562 24.210938 L 0.675781 24.210938 Z M 0.675781 0.0351562 " clip-rule="nonzero"/></clipPath><clipPath id="60680f1ad5"><path d="M 12.761719 0.0351562 C 6.085938 0.0351562 0.675781 5.445312 0.675781 12.121094 C 0.675781 18.800781 6.085938 24.210938 12.761719 24.210938 C 19.4375 24.210938 24.851562 18.800781 24.851562 12.121094 C 24.851562 5.445312 19.4375 0.0351562 12.761719 0.0351562 Z M 12.761719 0.0351562 " clip-rule="nonzero"/></clipPath><clipPath id="c7f255da7c"><rect x="0" width="569" y="0" height="112"/></clipPath><clipPath id="046f44d7bb"><rect x="0" width="569" y="0" height="112"/></clipPath></defs><g transform="matrix(1, 0, 0, 1, 386, 348)"><g clip-path="url(#046f44d7bb)"><g clip-path="url(#becfa91036)"></g><g fill="#000000" fill-opacity="1"><g transform="translate(98.282227, 87.84944)"><g><path d="M 7.515625 0 L 7.515625 -57.828125 L 32.1875 -57.828125 C 35.75 -57.828125 38.765625 -57.265625 41.234375 -56.140625 C 43.703125 -55.023438 45.566406 -53.429688 46.828125 -51.359375 C 48.097656 -49.285156 48.734375 -46.835938 48.734375 -44.015625 C 48.734375 -41.460938 48.113281 -39.207031 46.875 -37.25 C 45.632812 -35.300781 43.851562 -33.734375 41.53125 -32.546875 L 41.53125 -31.71875 C 45.164062 -30.769531 47.972656 -29.039062 49.953125 -26.53125 C 51.929688 -24.03125 52.921875 -20.960938 52.921875 -17.328125 C 52.921875 -11.785156 51.25 -7.507812 47.90625 -4.5 C 44.570312 -1.5 39.625 0 33.0625 0 Z M 29.828125 -34.765625 C 35.148438 -34.765625 37.8125 -37.164062 37.8125 -41.96875 C 37.8125 -44.414062 37.148438 -46.238281 35.828125 -47.4375 C 34.515625 -48.632812 32.515625 -49.234375 29.828125 -49.234375 L 18.9375 -49.234375 L 18.9375 -34.765625 Z M 31.921875 -9.0625 C 38.222656 -9.0625 41.375 -11.921875 41.375 -17.640625 C 41.375 -23.390625 38.222656 -26.265625 31.921875 -26.265625 L 18.9375 -26.265625 L 18.9375 -9.0625 Z M 31.921875 -9.0625 "/></g></g><g transform="translate(154.839845, 87.84944)"><g><path d="M 11.75 -48.84375 C 9.769531 -48.84375 8.160156 -49.441406 6.921875 -50.640625 C 5.679688 -51.835938 5.0625 -53.390625 5.0625 -55.296875 C 5.0625 -57.160156 5.679688 -58.691406 6.921875 -59.890625 C 8.160156 -61.097656 9.769531 -61.703125 11.75 -61.703125 C 13.0625 -61.703125 14.234375 -61.421875 15.265625 -60.859375 C 16.296875 -60.304688 17.09375 -59.550781 17.65625 -58.59375 C 18.226562 -57.632812 18.515625 -56.535156 18.515625 -55.296875 C 18.515625 -54.054688 18.226562 -52.945312 17.65625 -51.96875 C 17.09375 -50.988281 16.296875 -50.222656 15.265625 -49.671875 C 14.234375 -49.117188 13.0625 -48.84375 11.75 -48.84375 Z M 6.28125 0 L 6.28125 -43.625 L 17.25 -43.625 L 17.25 0 Z M 6.28125 0 "/></g></g><g transform="translate(178.333009, 87.84944)"><g><path d="M 30.09375 -10.40625 L 32.953125 -2.296875 C 31.765625 -1.316406 30.269531 -0.550781 28.46875 0 C 26.675781 0.550781 24.648438 0.828125 22.390625 0.828125 C 17.671875 0.828125 14.082031 -0.453125 11.625 -3.015625 C 9.175781 -5.585938 7.953125 -9.328125 7.953125 -14.234375 L 7.953125 -34.96875 L 1.3125 -34.96875 L 1.3125 -43.671875 L 7.953125 -43.671875 L 7.953125 -52.171875 L 18.90625 -53.953125 L 18.90625 -43.671875 L 31.28125 -43.671875 L 31.28125 -34.96875 L 18.90625 -34.96875 L 18.90625 -15.03125 C 18.90625 -12.863281 19.351562 -11.285156 20.25 -10.296875 C 21.144531 -9.304688 22.453125 -8.8125 24.171875 -8.8125 C 26.117188 -8.8125 27.816406 -9.34375 29.265625 -10.40625 Z M 30.09375 -10.40625 "/></g></g><g transform="translate(212.228029, 87.84944)"><g><path d="M 17 0.828125 C 14.207031 0.828125 11.78125 0.316406 9.71875 -0.703125 C 7.664062 -1.734375 6.085938 -3.242188 4.984375 -5.234375 C 3.878906 -7.234375 3.328125 -9.628906 3.328125 -12.421875 C 3.328125 -15.003906 3.878906 -17.171875 4.984375 -18.921875 C 6.085938 -20.679688 7.800781 -22.117188 10.125 -23.234375 C 12.445312 -24.359375 15.476562 -25.222656 19.21875 -25.828125 C 21.832031 -26.242188 23.816406 -26.703125 25.171875 -27.203125 C 26.535156 -27.710938 27.453125 -28.28125 27.921875 -28.90625 C 28.398438 -29.539062 28.640625 -30.347656 28.640625 -31.328125 C 28.640625 -32.722656 28.148438 -33.789062 27.171875 -34.53125 C 26.191406 -35.269531 24.570312 -35.640625 22.3125 -35.640625 C 19.882812 -35.640625 17.578125 -35.097656 15.390625 -34.015625 C 13.203125 -32.929688 11.300781 -31.507812 9.6875 -29.75 L 8.90625 -29.75 L 4.3125 -36.65625 C 6.53125 -39.113281 9.234375 -41.023438 12.421875 -42.390625 C 15.609375 -43.765625 19.085938 -44.453125 22.859375 -44.453125 C 28.628906 -44.453125 32.804688 -43.222656 35.390625 -40.765625 C 37.984375 -38.316406 39.28125 -34.835938 39.28125 -30.328125 L 39.28125 -11.390625 C 39.28125 -9.441406 40.132812 -8.46875 41.84375 -8.46875 C 42.5 -8.46875 43.144531 -8.582031 43.78125 -8.8125 L 44.34375 -8.65625 L 45.125 -1.03125 C 44.519531 -0.632812 43.675781 -0.3125 42.59375 -0.0625 C 41.507812 0.1875 40.320312 0.3125 39.03125 0.3125 C 36.425781 0.3125 34.390625 -0.1875 32.921875 -1.1875 C 31.460938 -2.1875 30.414062 -3.753906 29.78125 -5.890625 L 28.953125 -5.96875 C 26.816406 -1.4375 22.832031 0.828125 17 0.828125 Z M 20.484375 -7.359375 C 23.015625 -7.359375 25.035156 -8.207031 26.546875 -9.90625 C 28.066406 -11.601562 28.828125 -13.96875 28.828125 -17 L 28.828125 -21.4375 L 28.078125 -21.59375 C 27.421875 -21.0625 26.554688 -20.617188 25.484375 -20.265625 C 24.421875 -19.910156 22.890625 -19.5625 20.890625 -19.21875 C 18.515625 -18.820312 16.804688 -18.140625 15.765625 -17.171875 C 14.722656 -16.210938 14.203125 -14.851562 14.203125 -13.09375 C 14.203125 -11.21875 14.753906 -9.789062 15.859375 -8.8125 C 16.960938 -7.84375 18.503906 -7.359375 20.484375 -7.359375 Z M 26.265625 -47.96875 L 18.828125 -47.96875 L 18.828125 -48.8125 L 24.53125 -61.140625 L 36.78125 -61.140625 L 36.78125 -60.3125 Z M 26.265625 -47.96875 "/></g></g><g transform="translate(258.225587, 87.84944)"><g><path d="M 25.4375 0.828125 C 21.21875 0.828125 17.484375 -0.046875 14.234375 -1.796875 C 10.992188 -3.554688 8.460938 -6.132812 6.640625 -9.53125 C 4.828125 -12.9375 3.921875 -17.023438 3.921875 -21.796875 C 3.921875 -26.585938 4.828125 -30.679688 6.640625 -34.078125 C 8.460938 -37.484375 10.984375 -40.0625 14.203125 -41.8125 C 17.421875 -43.570312 21.097656 -44.453125 25.234375 -44.453125 C 34.429688 -44.453125 40.320312 -41.117188 42.90625 -34.453125 L 35.390625 -29.0625 L 34.5625 -29.0625 C 33.664062 -31.125 32.5 -32.65625 31.0625 -33.65625 C 29.625 -34.65625 27.679688 -35.15625 25.234375 -35.15625 C 22.066406 -35.15625 19.597656 -34.0625 17.828125 -31.875 C 16.066406 -29.6875 15.1875 -26.328125 15.1875 -21.796875 C 15.1875 -17.304688 16.082031 -13.960938 17.875 -11.765625 C 19.664062 -9.566406 22.1875 -8.46875 25.4375 -8.46875 C 27.800781 -8.46875 29.804688 -9.101562 31.453125 -10.375 C 33.109375 -11.65625 34.289062 -13.5 35 -15.90625 L 35.828125 -15.984375 L 43.625 -11.703125 C 42.519531 -8.015625 40.46875 -5.003906 37.46875 -2.671875 C 34.476562 -0.335938 30.46875 0.828125 25.4375 0.828125 Z M 25.4375 0.828125 "/></g></g><g transform="translate(303.194826, 87.84944)"><g><path d="M 25.359375 0.828125 C 21.078125 0.828125 17.320312 -0.046875 14.09375 -1.796875 C 10.863281 -3.554688 8.359375 -6.128906 6.578125 -9.515625 C 4.804688 -12.898438 3.921875 -16.992188 3.921875 -21.796875 C 3.921875 -26.585938 4.804688 -30.679688 6.578125 -34.078125 C 8.359375 -37.484375 10.863281 -40.0625 14.09375 -41.8125 C 17.320312 -43.570312 21.078125 -44.453125 25.359375 -44.453125 C 29.628906 -44.453125 33.378906 -43.570312 36.609375 -41.8125 C 39.835938 -40.0625 42.347656 -37.484375 44.140625 -34.078125 C 45.929688 -30.679688 46.828125 -26.585938 46.828125 -21.796875 C 46.828125 -16.992188 45.929688 -12.898438 44.140625 -9.515625 C 42.347656 -6.128906 39.835938 -3.554688 36.609375 -1.796875 C 33.378906 -0.046875 29.628906 0.828125 25.359375 0.828125 Z M 25.359375 -8.46875 C 32.128906 -8.46875 35.515625 -12.910156 35.515625 -21.796875 C 35.515625 -26.410156 34.644531 -29.789062 32.90625 -31.9375 C 31.164062 -34.082031 28.648438 -35.15625 25.359375 -35.15625 C 18.578125 -35.15625 15.1875 -30.703125 15.1875 -21.796875 C 15.1875 -12.910156 18.578125 -8.46875 25.359375 -8.46875 Z M 25.359375 -8.46875 "/></g></g><g transform="translate(353.898928, 87.84944)"><g><path d="M 6.28125 0 L 6.28125 -43.625 L 16.921875 -43.625 L 16.921875 -37.140625 L 17.765625 -36.984375 C 18.816406 -39.410156 20.195312 -41.1875 21.90625 -42.3125 C 23.625 -43.445312 25.707031 -44.015625 28.15625 -44.015625 C 30.632812 -44.015625 32.519531 -43.59375 33.8125 -42.75 L 31.953125 -33.296875 L 31.125 -33.140625 C 30.414062 -33.429688 29.726562 -33.640625 29.0625 -33.765625 C 28.40625 -33.898438 27.601562 -33.96875 26.65625 -33.96875 C 23.59375 -33.96875 21.257812 -32.894531 19.65625 -30.75 C 18.050781 -28.601562 17.25 -25.15625 17.25 -20.40625 L 17.25 0 Z M 6.28125 0 "/></g></g></g><g fill="#000000" fill-opacity="1"><g transform="translate(387.279789, 87.84944)"><g><path d="M 17 0.828125 C 14.207031 0.828125 11.78125 0.316406 9.71875 -0.703125 C 7.664062 -1.734375 6.085938 -3.242188 4.984375 -5.234375 C 3.878906 -7.234375 3.328125 -9.628906 3.328125 -12.421875 C 3.328125 -15.003906 3.878906 -17.171875 4.984375 -18.921875 C 6.085938 -20.679688 7.800781 -22.117188 10.125 -23.234375 C 12.445312 -24.359375 15.476562 -25.222656 19.21875 -25.828125 C 21.832031 -26.242188 23.816406 -26.703125 25.171875 -27.203125 C 26.535156 -27.710938 27.453125 -28.28125 27.921875 -28.90625 C 28.398438 -29.539062 28.640625 -30.347656 28.640625 -31.328125 C 28.640625 -32.722656 28.148438 -33.789062 27.171875 -34.53125 C 26.191406 -35.269531 24.570312 -35.640625 22.3125 -35.640625 C 19.882812 -35.640625 17.578125 -35.097656 15.390625 -34.015625 C 13.203125 -32.929688 11.300781 -31.507812 9.6875 -29.75 L 8.90625 -29.75 L 4.3125 -36.65625 C 6.53125 -39.113281 9.234375 -41.023438 12.421875 -42.390625 C 15.609375 -43.765625 19.085938 -44.453125 22.859375 -44.453125 C 28.628906 -44.453125 32.804688 -43.222656 35.390625 -40.765625 C 37.984375 -38.316406 39.28125 -34.835938 39.28125 -30.328125 L 39.28125 -11.390625 C 39.28125 -9.441406 40.132812 -8.46875 41.84375 -8.46875 C 42.5 -8.46875 43.144531 -8.582031 43.78125 -8.8125 L 44.34375 -8.65625 L 45.125 -1.03125 C 44.519531 -0.632812 43.675781 -0.3125 42.59375 -0.0625 C 41.507812 0.1875 40.320312 0.3125 39.03125 0.3125 C 36.425781 0.3125 34.390625 -0.1875 32.921875 -1.1875 C 31.460938 -2.1875 30.414062 -3.753906 29.78125 -5.890625 L 28.953125 -5.96875 C 26.816406 -1.4375 22.832031 0.828125 17 0.828125 Z M 20.484375 -7.359375 C 23.015625 -7.359375 25.035156 -8.207031 26.546875 -9.90625 C 28.066406 -11.601562 28.828125 -13.96875 28.828125 -17 L 28.828125 -21.4375 L 28.078125 -21.59375 C 27.421875 -21.0625 26.554688 -20.617188 25.484375 -20.265625 C 24.421875 -19.910156 22.890625 -19.5625 20.890625 -19.21875 C 18.515625 -18.820312 16.804688 -18.140625 15.765625 -17.171875 C 14.722656 -16.210938 14.203125 -14.851562 14.203125 -13.09375 C 14.203125 -11.21875 14.753906 -9.789062 15.859375 -8.8125 C 16.960938 -7.84375 18.503906 -7.359375 20.484375 -7.359375 Z M 20.484375 -7.359375 "/></g></g><g transform="translate(433.277347, 87.84944)"><g><path d="M 29.859375 -57.828125 C 34.003906 -57.828125 37.546875 -57.066406 40.484375 -55.546875 C 43.421875 -54.035156 45.640625 -51.914062 47.140625 -49.1875 C 48.648438 -46.457031 49.40625 -43.285156 49.40625 -39.671875 C 49.40625 -36.054688 48.648438 -32.890625 47.140625 -30.171875 C 45.640625 -27.460938 43.421875 -25.347656 40.484375 -23.828125 C 37.546875 -22.316406 34.003906 -21.5625 29.859375 -21.5625 L 18.9375 -21.5625 L 18.9375 0 L 7.515625 0 L 7.515625 -57.828125 Z M 28.359375 -30.609375 C 34.710938 -30.609375 37.890625 -33.628906 37.890625 -39.671875 C 37.890625 -45.734375 34.710938 -48.765625 28.359375 -48.765625 L 18.9375 -48.765625 L 18.9375 -30.609375 Z M 28.359375 -30.609375 "/></g></g></g><g fill="#000000" fill-opacity="1"><g transform="translate(484.97022, 87.84944)"><g><path d="M 6.28125 0 L 6.28125 -43.625 L 16.921875 -43.625 L 16.921875 -37.140625 L 17.765625 -36.984375 C 18.816406 -39.410156 20.195312 -41.1875 21.90625 -42.3125 C 23.625 -43.445312 25.707031 -44.015625 28.15625 -44.015625 C 30.632812 -44.015625 32.519531 -43.59375 33.8125 -42.75 L 31.953125 -33.296875 L 31.125 -33.140625 C 30.414062 -33.429688 29.726562 -33.640625 29.0625 -33.765625 C 28.40625 -33.898438 27.601562 -33.96875 26.65625 -33.96875 C 23.59375 -33.96875 21.257812 -32.894531 19.65625 -30.75 C 18.050781 -28.601562 17.25 -25.15625 17.25 -20.40625 L 17.25 0 Z M 6.28125 0 "/></g></g></g><g fill="#000000" fill-opacity="1"><g transform="translate(518.034674, 87.84944)"><g><path d="M 25.359375 0.828125 C 21.078125 0.828125 17.320312 -0.046875 14.09375 -1.796875 C 10.863281 -3.554688 8.359375 -6.128906 6.578125 -9.515625 C 4.804688 -12.898438 3.921875 -16.992188 3.921875 -21.796875 C 3.921875 -26.585938 4.804688 -30.679688 6.578125 -34.078125 C 8.359375 -37.484375 10.863281 -40.0625 14.09375 -41.8125 C 17.320312 -43.570312 21.078125 -44.453125 25.359375 -44.453125 C 29.628906 -44.453125 33.378906 -43.570312 36.609375 -41.8125 C 39.835938 -40.0625 42.347656 -37.484375 44.140625 -34.078125 C 45.929688 -30.679688 46.828125 -26.585938 46.828125 -21.796875 C 46.828125 -16.992188 45.929688 -12.898438 44.140625 -9.515625 C 42.347656 -6.128906 39.835938 -3.554688 36.609375 -1.796875 C 33.378906 -0.046875 29.628906 0.828125 25.359375 0.828125 Z M 25.359375 -8.46875 C 32.128906 -8.46875 35.515625 -12.910156 35.515625 -21.796875 C 35.515625 -26.410156 34.644531 -29.789062 32.90625 -31.9375 C 31.164062 -34.082031 28.648438 -35.15625 25.359375 -35.15625 C 18.578125 -35.15625 15.1875 -30.703125 15.1875 -21.796875 C 15.1875 -12.910156 18.578125 -8.46875 25.359375 -8.46875 Z M 25.359375 -8.46875 "/></g></g></g><g clip-path="url(#c09aaa9e00)"><g clip-path="url(#ac7c116591)"><g transform="matrix(1, 0, 0, 1, 9, 25)"><g clip-path="url(#164b02727e)"><g clip-path="url(#8afdc3e714)"><g clip-path="url(#cea62524e9)"><path fill="#1800ad" d="M -2.355469 0.117188 L 77.003906 0.117188 L 77.003906 63.210938 L -2.355469 63.210938 Z M -2.355469 0.117188 " fill-opacity="1" fill-rule="nonzero"/></g></g></g></g></g></g><g clip-path="url(#44138cc699)"><g clip-path="url(#5736b685bf)"><g transform="matrix(1, 0, 0, 1, 0, 64)"><g clip-path="url(#c7f255da7c)"><g clip-path="url(#df191d0266)"><g clip-path="url(#60680f1ad5)"><path fill="#1800ad" d="M 0.675781 0.0351562 L 24.851562 0.0351562 L 24.851562 24.210938 L 0.675781 24.210938 Z M 0.675781 0.0351562 " fill-opacity="1" fill-rule="nonzero"/></g></g></g></g></g></g></g></g></svg>