<svg xmlns="http://www.w3.org/2000/svg" xmlns:xlink="http://www.w3.org/1999/xlink" viewBox="191.89 640.40 1066.05 157.70" preserveAspectRatio="xMidYMid meet" version="1.0"><defs><g/><clipPath id="5c4112f8d8"><path d="M 228 660.402344 L 364.898438 660.402344 L 364.898438 777.246094 L 228 777.246094 Z M 228 660.402344 " clip-rule="nonzero"/></clipPath><clipPath id="58d5f90ff8"><path d="M 301.34375 660.402344 L 237.953125 660.402344 C 234.671875 660.402344 231.621094 662.070312 229.851562 664.828125 C 228.078125 667.585938 227.835938 671.058594 229.199219 674.039062 L 270.238281 763.609375 C 274.046875 771.917969 282.347656 777.246094 291.488281 777.246094 L 354.878906 777.246094 C 358.160156 777.246094 361.210938 775.574219 362.980469 772.816406 C 364.753906 770.058594 364.996094 766.585938 363.632812 763.609375 L 322.59375 674.039062 C 318.785156 665.730469 310.484375 660.402344 301.34375 660.402344 Z M 301.34375 660.402344 " clip-rule="nonzero"/></clipPath><clipPath id="f17b24f791"><path d="M 0 0.402344 L 136.898438 0.402344 L 136.898438 117.246094 L 0 117.246094 Z M 0 0.402344 " clip-rule="nonzero"/></clipPath><clipPath id="ddd273ebc2"><path d="M 73.34375 0.402344 L 9.953125 0.402344 C 6.671875 0.402344 3.621094 2.070312 1.851562 4.828125 C 0.078125 7.585938 -0.164062 11.058594 1.199219 14.039062 L 42.238281 103.609375 C 46.046875 111.917969 54.347656 117.246094 63.488281 117.246094 L 126.878906 117.246094 C 130.160156 117.246094 133.210938 115.574219 134.980469 112.816406 C 136.753906 110.058594 136.996094 106.585938 135.632812 103.609375 L 94.59375 14.039062 C 90.785156 5.730469 82.484375 0.402344 73.34375 0.402344 Z M 73.34375 0.402344 " clip-rule="nonzero"/></clipPath><clipPath id="ad6e761ca3"><rect x="0" width="137" y="0" height="118"/></clipPath><clipPath id="36c6e42714"><path d="M 211.894531 732.46875 L 256.671875 732.46875 L 256.671875 777.246094 L 211.894531 777.246094 Z M 211.894531 732.46875 " clip-rule="nonzero"/></clipPath><clipPath id="48971205cf"><path d="M 234.28125 732.46875 C 221.917969 732.46875 211.894531 742.492188 211.894531 754.855469 C 211.894531 767.222656 221.917969 777.246094 234.28125 777.246094 C 246.648438 777.246094 256.671875 767.222656 256.671875 754.855469 C 256.671875 742.492188 246.648438 732.46875 234.28125 732.46875 Z M 234.28125 732.46875 " clip-rule="nonzero"/></clipPath><clipPath id="0100f85c74"><path d="M 0.894531 0.46875 L 45.671875 0.46875 L 45.671875 45.246094 L 0.894531 45.246094 Z M 0.894531 0.46875 " clip-rule="nonzero"/></clipPath><clipPath id="65fb427594"><path d="M 23.28125 0.46875 C 10.917969 0.46875 0.894531 10.492188 0.894531 22.855469 C 0.894531 35.222656 10.917969 45.246094 23.28125 45.246094 C 35.648438 45.246094 45.671875 35.222656 45.671875 22.855469 C 45.671875 10.492188 35.648438 0.46875 23.28125 0.46875 Z M 23.28125 0.46875 " clip-rule="nonzero"/></clipPath><clipPath id="7090b5e7cd"><rect x="0" width="46" y="0" height="46"/></clipPath></defs><g fill="#000000" fill-opacity="1"><g transform="translate(373.902339, 776.572929)"><g><path d="M 13.921875 0 L 13.921875 -107.078125 L 59.625 -107.078125 C 66.207031 -107.078125 71.78125 -106.039062 76.34375 -103.96875 C 80.914062 -101.894531 84.375 -98.941406 86.71875 -95.109375 C 89.0625 -91.273438 90.234375 -86.742188 90.234375 -81.515625 C 90.234375 -76.785156 89.082031 -72.613281 86.78125 -69 C 84.488281 -65.382812 81.195312 -62.476562 76.90625 -60.28125 L 76.90625 -58.734375 C 83.644531 -56.984375 88.84375 -53.785156 92.5 -49.140625 C 96.164062 -44.503906 98 -38.816406 98 -32.078125 C 98 -21.828125 94.910156 -13.914062 88.734375 -8.34375 C 82.554688 -2.78125 73.390625 0 61.234375 0 Z M 55.21875 -64.375 C 65.082031 -64.375 70.015625 -68.816406 70.015625 -77.703125 C 70.015625 -82.242188 68.796875 -85.625 66.359375 -87.84375 C 63.921875 -90.070312 60.207031 -91.1875 55.21875 -91.1875 L 35.078125 -91.1875 L 35.078125 -64.375 Z M 59.109375 -16.765625 C 70.773438 -16.765625 76.609375 -22.066406 76.609375 -32.671875 C 76.609375 -43.316406 70.773438 -48.640625 59.109375 -48.640625 L 35.078125 -48.640625 L 35.078125 -16.765625 Z M 59.109375 -16.765625 "/></g></g><g transform="translate(478.638659, 776.572929)"><g><path d="M 21.75 -90.453125 C 18.09375 -90.453125 15.113281 -91.5625 12.8125 -93.78125 C 10.519531 -96.007812 9.375 -98.878906 9.375 -102.390625 C 9.375 -105.859375 10.519531 -108.703125 12.8125 -110.921875 C 15.113281 -113.148438 18.09375 -114.265625 21.75 -114.265625 C 24.195312 -114.265625 26.367188 -113.75 28.265625 -112.71875 C 30.171875 -111.695312 31.648438 -110.289062 32.703125 -108.5 C 33.753906 -106.71875 34.28125 -104.679688 34.28125 -102.390625 C 34.28125 -100.097656 33.753906 -98.046875 32.703125 -96.234375 C 31.648438 -94.429688 30.171875 -93.015625 28.265625 -91.984375 C 26.367188 -90.960938 24.195312 -90.453125 21.75 -90.453125 Z M 11.640625 0 L 11.640625 -80.78125 L 31.9375 -80.78125 L 31.9375 0 Z M 11.640625 0 "/></g></g><g transform="translate(522.144514, 776.572929)"><g><path d="M 55.734375 -19.265625 L 61.015625 -4.25 C 58.816406 -2.4375 56.054688 -1.019531 52.734375 0 C 49.410156 1.019531 45.648438 1.53125 41.453125 1.53125 C 32.710938 1.53125 26.070312 -0.847656 21.53125 -5.609375 C 16.988281 -10.367188 14.71875 -17.289062 14.71875 -26.375 L 14.71875 -64.75 L 2.421875 -64.75 L 2.421875 -80.859375 L 14.71875 -80.859375 L 14.71875 -96.609375 L 35.015625 -99.90625 L 35.015625 -80.859375 L 57.9375 -80.859375 L 57.9375 -64.75 L 35.015625 -64.75 L 35.015625 -27.828125 C 35.015625 -23.828125 35.84375 -20.910156 37.5 -19.078125 C 39.15625 -17.242188 41.570312 -16.328125 44.75 -16.328125 C 48.363281 -16.328125 51.515625 -17.304688 54.203125 -19.265625 Z M 55.734375 -19.265625 "/></g></g><g transform="translate(584.913063, 776.572929)"><g><path d="M 31.5 1.53125 C 26.320312 1.53125 21.828125 0.582031 18.015625 -1.3125 C 14.210938 -3.21875 11.285156 -6.015625 9.234375 -9.703125 C 7.179688 -13.390625 6.15625 -17.820312 6.15625 -23 C 6.15625 -27.78125 7.179688 -31.796875 9.234375 -35.046875 C 11.285156 -38.296875 14.457031 -40.957031 18.75 -43.03125 C 23.050781 -45.101562 28.664062 -46.703125 35.59375 -47.828125 C 40.425781 -48.609375 44.097656 -49.460938 46.609375 -50.390625 C 49.128906 -51.316406 50.828125 -52.363281 51.703125 -53.53125 C 52.585938 -54.707031 53.03125 -56.203125 53.03125 -58.015625 C 53.03125 -60.597656 52.125 -62.570312 50.3125 -63.9375 C 48.507812 -65.300781 45.507812 -65.984375 41.3125 -65.984375 C 36.820312 -65.984375 32.546875 -64.984375 28.484375 -62.984375 C 24.429688 -60.984375 20.914062 -58.347656 17.9375 -55.078125 L 16.484375 -55.078125 L 7.984375 -67.890625 C 12.085938 -72.429688 17.09375 -75.972656 23 -78.515625 C 28.90625 -81.054688 35.347656 -82.328125 42.328125 -82.328125 C 53.023438 -82.328125 60.765625 -80.054688 65.546875 -75.515625 C 70.335938 -70.972656 72.734375 -64.523438 72.734375 -56.171875 L 72.734375 -21.09375 C 72.734375 -17.476562 74.316406 -15.671875 77.484375 -15.671875 C 78.710938 -15.671875 79.910156 -15.890625 81.078125 -16.328125 L 82.109375 -16.046875 L 83.5625 -1.90625 C 82.445312 -1.175781 80.882812 -0.578125 78.875 -0.109375 C 76.875 0.359375 74.679688 0.59375 72.296875 0.59375 C 67.460938 0.59375 63.6875 -0.332031 60.96875 -2.1875 C 58.257812 -4.050781 56.320312 -6.957031 55.15625 -10.90625 L 53.609375 -11.0625 C 49.660156 -2.664062 42.289062 1.53125 31.5 1.53125 Z M 37.9375 -13.625 C 42.625 -13.625 46.367188 -15.195312 49.171875 -18.34375 C 51.984375 -21.5 53.390625 -25.882812 53.390625 -31.5 L 53.390625 -39.703125 L 52 -39.984375 C 50.78125 -39.015625 49.179688 -38.195312 47.203125 -37.53125 C 45.222656 -36.875 42.378906 -36.226562 38.671875 -35.59375 C 34.273438 -34.863281 31.113281 -33.609375 29.1875 -31.828125 C 27.257812 -30.046875 26.296875 -27.519531 26.296875 -24.25 C 26.296875 -20.78125 27.320312 -18.140625 29.375 -16.328125 C 31.425781 -14.523438 34.28125 -13.625 37.9375 -13.625 Z M 48.625 -88.84375 L 34.859375 -88.84375 L 34.859375 -90.375 L 45.40625 -113.234375 L 68.109375 -113.234375 L 68.109375 -111.6875 Z M 48.625 -88.84375 "/></g></g><g transform="translate(670.093719, 776.572929)"><g><path d="M 47.09375 1.53125 C 39.28125 1.53125 32.367188 -0.0859375 26.359375 -3.328125 C 20.359375 -6.578125 15.671875 -11.347656 12.296875 -17.640625 C 8.929688 -23.941406 7.25 -31.515625 7.25 -40.359375 C 7.25 -49.242188 8.929688 -56.832031 12.296875 -63.125 C 15.671875 -69.425781 20.335938 -74.203125 26.296875 -77.453125 C 32.253906 -80.703125 39.066406 -82.328125 46.734375 -82.328125 C 63.773438 -82.328125 74.6875 -76.148438 79.46875 -63.796875 L 65.546875 -53.828125 L 64.015625 -53.828125 C 62.359375 -57.640625 60.195312 -60.472656 57.53125 -62.328125 C 54.875 -64.179688 51.273438 -65.109375 46.734375 -65.109375 C 40.867188 -65.109375 36.300781 -63.082031 33.03125 -59.03125 C 29.757812 -54.976562 28.125 -48.753906 28.125 -40.359375 C 28.125 -32.054688 29.785156 -25.863281 33.109375 -21.78125 C 36.429688 -17.707031 41.09375 -15.671875 47.09375 -15.671875 C 51.488281 -15.671875 55.210938 -16.851562 58.265625 -19.21875 C 61.316406 -21.59375 63.5 -25 64.8125 -29.4375 L 66.359375 -29.59375 L 80.78125 -21.6875 C 78.726562 -14.84375 74.929688 -9.257812 69.390625 -4.9375 C 63.847656 -0.625 56.414062 1.53125 47.09375 1.53125 Z M 47.09375 1.53125 "/></g></g><g transform="translate(753.370079, 776.572929)"><g><path d="M 46.953125 1.53125 C 39.035156 1.53125 32.085938 -0.0859375 26.109375 -3.328125 C 20.128906 -6.578125 15.488281 -11.335938 12.1875 -17.609375 C 8.894531 -23.890625 7.25 -31.472656 7.25 -40.359375 C 7.25 -49.242188 8.894531 -56.832031 12.1875 -63.125 C 15.488281 -69.425781 20.128906 -74.203125 26.109375 -77.453125 C 32.085938 -80.703125 39.035156 -82.328125 46.953125 -82.328125 C 54.859375 -82.328125 61.800781 -80.703125 67.78125 -77.453125 C 73.769531 -74.203125 78.421875 -69.425781 81.734375 -63.125 C 85.054688 -56.832031 86.71875 -49.242188 86.71875 -40.359375 C 86.71875 -31.472656 85.054688 -23.890625 81.734375 -17.609375 C 78.421875 -11.335938 73.769531 -6.578125 67.78125 -3.328125 C 61.800781 -0.0859375 54.859375 1.53125 46.953125 1.53125 Z M 46.953125 -15.671875 C 59.492188 -15.671875 65.765625 -23.898438 65.765625 -40.359375 C 65.765625 -48.898438 64.15625 -55.160156 60.9375 -59.140625 C 57.71875 -63.117188 53.054688 -65.109375 46.953125 -65.109375 C 34.398438 -65.109375 28.125 -56.859375 28.125 -40.359375 C 28.125 -23.898438 34.398438 -15.671875 46.953125 -15.671875 Z M 46.953125 -15.671875 "/></g></g><g transform="translate(847.266555, 776.572929)"><g><path d="M 11.640625 0 L 11.640625 -80.78125 L 31.34375 -80.78125 L 31.34375 -68.78125 L 32.890625 -68.484375 C 34.835938 -72.972656 37.398438 -76.265625 40.578125 -78.359375 C 43.753906 -80.460938 47.613281 -81.515625 52.15625 -81.515625 C 56.738281 -81.515625 60.226562 -80.734375 62.625 -79.171875 L 59.1875 -61.671875 L 57.640625 -61.375 C 56.328125 -61.914062 55.054688 -62.304688 53.828125 -62.546875 C 52.609375 -62.796875 51.117188 -62.921875 49.359375 -62.921875 C 43.703125 -62.921875 39.382812 -60.929688 36.40625 -56.953125 C 33.425781 -52.972656 31.9375 -46.585938 31.9375 -37.796875 L 31.9375 0 Z M 11.640625 0 "/></g></g></g><g fill="#000000" fill-opacity="1"><g transform="translate(909.082958, 776.572929)"><g><path d="M 31.5 1.53125 C 26.320312 1.53125 21.828125 0.582031 18.015625 -1.3125 C 14.210938 -3.21875 11.285156 -6.015625 9.234375 -9.703125 C 7.179688 -13.390625 6.15625 -17.820312 6.15625 -23 C 6.15625 -27.78125 7.179688 -31.796875 9.234375 -35.046875 C 11.285156 -38.296875 14.457031 -40.957031 18.75 -43.03125 C 23.050781 -45.101562 28.664062 -46.703125 35.59375 -47.828125 C 40.425781 -48.609375 44.097656 -49.460938 46.609375 -50.390625 C 49.128906 -51.316406 50.828125 -52.363281 51.703125 -53.53125 C 52.585938 -54.707031 53.03125 -56.203125 53.03125 -58.015625 C 53.03125 -60.597656 52.125 -62.570312 50.3125 -63.9375 C 48.507812 -65.300781 45.507812 -65.984375 41.3125 -65.984375 C 36.820312 -65.984375 32.546875 -64.984375 28.484375 -62.984375 C 24.429688 -60.984375 20.914062 -58.347656 17.9375 -55.078125 L 16.484375 -55.078125 L 7.984375 -67.890625 C 12.085938 -72.429688 17.09375 -75.972656 23 -78.515625 C 28.90625 -81.054688 35.347656 -82.328125 42.328125 -82.328125 C 53.023438 -82.328125 60.765625 -80.054688 65.546875 -75.515625 C 70.335938 -70.972656 72.734375 -64.523438 72.734375 -56.171875 L 72.734375 -21.09375 C 72.734375 -17.476562 74.316406 -15.671875 77.484375 -15.671875 C 78.710938 -15.671875 79.910156 -15.890625 81.078125 -16.328125 L 82.109375 -16.046875 L 83.5625 -1.90625 C 82.445312 -1.175781 80.882812 -0.578125 78.875 -0.109375 C 76.875 0.359375 74.679688 0.59375 72.296875 0.59375 C 67.460938 0.59375 63.6875 -0.332031 60.96875 -2.1875 C 58.257812 -4.050781 56.320312 -6.957031 55.15625 -10.90625 L 53.609375 -11.0625 C 49.660156 -2.664062 42.289062 1.53125 31.5 1.53125 Z M 37.9375 -13.625 C 42.625 -13.625 46.367188 -15.195312 49.171875 -18.34375 C 51.984375 -21.5 53.390625 -25.882812 53.390625 -31.5 L 53.390625 -39.703125 L 52 -39.984375 C 50.78125 -39.015625 49.179688 -38.195312 47.203125 -37.53125 C 45.222656 -36.875 42.378906 -36.226562 38.671875 -35.59375 C 34.273438 -34.863281 31.113281 -33.609375 29.1875 -31.828125 C 27.257812 -30.046875 26.296875 -27.519531 26.296875 -24.25 C 26.296875 -20.78125 27.320312 -18.140625 29.375 -16.328125 C 31.425781 -14.523438 34.28125 -13.625 37.9375 -13.625 Z M 37.9375 -13.625 "/></g></g><g transform="translate(994.263614, 776.572929)"><g><path d="M 55.296875 -107.078125 C 62.960938 -107.078125 69.515625 -105.671875 74.953125 -102.859375 C 80.398438 -100.054688 84.515625 -96.128906 87.296875 -91.078125 C 90.085938 -86.023438 91.484375 -80.15625 91.484375 -73.46875 C 91.484375 -66.769531 90.085938 -60.90625 87.296875 -55.875 C 84.515625 -50.851562 80.398438 -46.9375 74.953125 -44.125 C 69.515625 -41.320312 62.960938 -39.921875 55.296875 -39.921875 L 35.078125 -39.921875 L 35.078125 0 L 13.921875 0 L 13.921875 -107.078125 Z M 52.515625 -56.6875 C 64.285156 -56.6875 70.171875 -62.28125 70.171875 -73.46875 C 70.171875 -84.695312 64.285156 -90.3125 52.515625 -90.3125 L 35.078125 -90.3125 L 35.078125 -56.6875 Z M 52.515625 -56.6875 "/></g></g></g><g fill="#000000" fill-opacity="1"><g transform="translate(1089.991148, 776.572929)"><g><path d="M 11.640625 0 L 11.640625 -80.78125 L 31.34375 -80.78125 L 31.34375 -68.78125 L 32.890625 -68.484375 C 34.835938 -72.972656 37.398438 -76.265625 40.578125 -78.359375 C 43.753906 -80.460938 47.613281 -81.515625 52.15625 -81.515625 C 56.738281 -81.515625 60.226562 -80.734375 62.625 -79.171875 L 59.1875 -61.671875 L 57.640625 -61.375 C 56.328125 -61.914062 55.054688 -62.304688 53.828125 -62.546875 C 52.609375 -62.796875 51.117188 -62.921875 49.359375 -62.921875 C 43.703125 -62.921875 39.382812 -60.929688 36.40625 -56.953125 C 33.425781 -52.972656 31.9375 -46.585938 31.9375 -37.796875 L 31.9375 0 Z M 11.640625 0 "/></g></g></g><g fill="#000000" fill-opacity="1"><g transform="translate(1151.221611, 776.572929)"><g><path d="M 46.953125 1.53125 C 39.035156 1.53125 32.085938 -0.0859375 26.109375 -3.328125 C 20.128906 -6.578125 15.488281 -11.335938 12.1875 -17.609375 C 8.894531 -23.890625 7.25 -31.472656 7.25 -40.359375 C 7.25 -49.242188 8.894531 -56.832031 12.1875 -63.125 C 15.488281 -69.425781 20.128906 -74.203125 26.109375 -77.453125 C 32.085938 -80.703125 39.035156 -82.328125 46.953125 -82.328125 C 54.859375 -82.328125 61.800781 -80.703125 67.78125 -77.453125 C 73.769531 -74.203125 78.421875 -69.425781 81.734375 -63.125 C 85.054688 -56.832031 86.71875 -49.242188 86.71875 -40.359375 C 86.71875 -31.472656 85.054688 -23.890625 81.734375 -17.609375 C 78.421875 -11.335938 73.769531 -6.578125 67.78125 -3.328125 C 61.800781 -0.0859375 54.859375 1.53125 46.953125 1.53125 Z M 46.953125 -15.671875 C 59.492188 -15.671875 65.765625 -23.898438 65.765625 -40.359375 C 65.765625 -48.898438 64.15625 -55.160156 60.9375 -59.140625 C 57.71875 -63.117188 53.054688 -65.109375 46.953125 -65.109375 C 34.398438 -65.109375 28.125 -56.859375 28.125 -40.359375 C 28.125 -23.898438 34.398438 -15.671875 46.953125 -15.671875 Z M 46.953125 -15.671875 "/></g></g></g><g clip-path="url(#5c4112f8d8)"><g clip-path="url(#58d5f90ff8)"><g transform="matrix(1, 0, 0, 1, 228, 660)"><g clip-path="url(#ad6e761ca3)"><g clip-path="url(#f17b24f791)"><g clip-path="url(#ddd273ebc2)"><path fill="#1800ad" d="M -5.046875 0.402344 L 141.917969 0.402344 L 141.917969 117.246094 L -5.046875 117.246094 Z M -5.046875 0.402344 " fill-opacity="1" fill-rule="nonzero"/></g></g></g></g></g></g><g clip-path="url(#36c6e42714)"><g clip-path="url(#48971205cf)"><g transform="matrix(1, 0, 0, 1, 211, 732)"><g clip-path="url(#7090b5e7cd)"><g clip-path="url(#0100f85c74)"><g clip-path="url(#65fb427594)"><path fill="#1800ad" d="M 0.894531 0.46875 L 45.671875 0.46875 L 45.671875 45.246094 L 0.894531 45.246094 Z M 0.894531 0.46875 " fill-opacity="1" fill-rule="nonzero"/></g></g></g></g></g></g></svg>